<?xml version="1.0" encoding="utf-8"?>
<!-- Generator: Adobe Illustrator 24.1.0, SVG Export Plug-In . SVG Version: 6.00 Build 0)  -->
<svg version="1.1" id="Layer_1" xmlns="http://www.w3.org/2000/svg" xmlns:xlink="http://www.w3.org/1999/xlink" x="0px" y="0px"
	 viewBox="0 0 566 261.4" style="enable-background:new 0 0 566 261.4;" xml:space="preserve">
<style type="text/css">
	.st0{fill-rule:evenodd;clip-rule:evenodd;fill:#12AFFF;}
	.st1{fill:#12AFFF;}
	.st2{fill:#12AFFF;stroke:#12AFFF;stroke-width:0.216;stroke-miterlimit:10;}
	.st3{fill-rule:evenodd;clip-rule:evenodd;fill:#E1812A;}
	.st4{fill-rule:evenodd;clip-rule:evenodd;fill:#F1D601;}
	.st5{fill-rule:evenodd;clip-rule:evenodd;fill:#BFD81A;}
	.st6{fill-rule:evenodd;clip-rule:evenodd;fill:#017338;}
	.st7{fill-rule:evenodd;clip-rule:evenodd;fill:#D82926;}
	.st8{fill-rule:evenodd;clip-rule:evenodd;fill:#32AB38;}
	.st9{fill-rule:evenodd;clip-rule:evenodd;fill:#005AA0;}
	.st10{fill-rule:evenodd;clip-rule:evenodd;fill:#AC2478;}
	.st11{fill-rule:evenodd;clip-rule:evenodd;fill:#213280;}
	.st12{fill-rule:evenodd;clip-rule:evenodd;fill:#612E7D;}
	.st13{fill-rule:evenodd;clip-rule:evenodd;fill:#DC3060;}
	.st14{fill-rule:evenodd;clip-rule:evenodd;fill:#E5B62D;}
	.st15{fill-rule:evenodd;clip-rule:evenodd;fill:#E48B3C;}
	.st16{fill-rule:evenodd;clip-rule:evenodd;fill:#C77727;}
	.st17{fill-rule:evenodd;clip-rule:evenodd;fill:#E56725;}
	.st18{fill-rule:evenodd;clip-rule:evenodd;fill:#FFFFFF;}
</style>
<g>
	<g id="_2551141595936">
		<path class="st0" d="M70.5,53.4c0.9-1.2,0.2-1.5,1.7-2.2c1.5,0.4,0.8,1.4,3.2,1.3c0.5-0.5,0.7-0.9,1.2-1.2
			c0.6-0.4,1.4-0.2,1.9-0.5c0.6-0.5,0.3-1.2,1-1.5c0.8-0.5,1.1,0.2,1.1,0.9c0.1,1.4-0.9,2.3-1.4,3.3c-0.8,1.4-0.4,2.3-0.5,4.1
			c-0.2,2.1-0.3,6.3,0.7,8.3c0.5,0.9,1.4,1.8,1.7,2.9c0.8,2.3,1.8,5.1,2.2,7.4c1.3,7.9,0.5,6.5,1,12.9c0.3,3.2,0.7,5.2,1.2,8.1
			c0.2,1.5,0.6,2.2,0.9,3.8c0.2,1.6,0.7,2.5,0.7,4c-1.5-0.4-1.5-1.4-2.5-1.7c-0.5,1.2,2,3.5,2.9,4.4c2.8,2.7,4.7,5.7,6.8,8.9
			c1.1,1.6,1.8,3.2,2.7,4.9c2.2,4.2,2.8,7,4.4,11.2l2.3,9.5c0.2,1.1,0.2,2.2,0.5,3.3c0.3,1.3,0.5,1.8,0.6,3.3
			c0.1,1.2,0.2,2.3,0.5,3.5c1.5,6.4,0.7,14.6-1.1,20.5c-0.4,1.2-0.3,2.1-0.7,3.2l-2.6,9.1c-0.1,0.3-5.2,16.3-6.3,18.8l-1.7,4.2
			c-0.6,1.9-1.4,3.9-2.2,5.7c-0.6,1.6-2.1,3.8-2.2,5.3c-0.5,4.7-0.2,9.5-1.7,13.9c-0.7,2.1-1.7,3.4-3.7,4.2
			c-2.4,0.9-4.1-0.6-4.6-2.4c-1.4-4.2,1.4-9.3,1.1-13.9c-0.2-2.4-0.5-5.1,0.6-6.9c0.7-1.1,1.3-1.1,2.2-1.8c1.4-1.1,1.1-7.6,1.5-9.9
			c0.5-2.3,0.4-4.6,0.6-7.1c0.2-1.8,1.6-12.7,0.5-14.5c-0.4,0.5-1.9,4.6-2.2,5.6c-3,9.4-7,18.2-11.3,27.1c-0.9,1.8-1.6,3.4-2.6,5.2
			c-4.1,7.5-1.5,4.3-1.6,7.1c0,0.9-0.5,1.1-0.8,1.9c-3.6,8.4-1.1,7.7-2.3,13.4c-0.5,2.8-2.5,5.1-6.1,4c-4.1-1.3-3.6-8.4-3.3-12
			c0.3-2.6,2.3-7.3,3.1-10.1c0.3-0.9,0.4-0.8,0.6-1.7c1.5-5.5,1.9-11.8,4-16.8c0.4-0.8,0.4-1.3,0.6-2.1l5-13.4
			c2.7-7.6,0.9-17.7,3.3-27.9c0.4-1.5,0.5-2.8,0.8-4.5c0.8-5.2,1.7-8.3-0.3-13.6c-0.4-1.1-1.4-2.3-2.2-3c-3-2.9-2.8,0.2-3.3-5.1
			c-1,2.4-0.5,1.7-2.5,4c-7.2,7.5-11,13.7-16.7,22.2c-1.6,2.3-0.7,2.2-3.2,3.2c-0.2,3.2-0.5,3.3-1.2,5.9c-0.4,1.1-0.1,2.2-0.3,3.3
			c-0.1,0.8-0.4,1.4-1.3,1.4c-1.3,0-0.4-1.8-1.3-2.6c-1.1,1.2,0.3,3.6-0.5,4.3c-1.4,0.9-1.2-0.1-1.7-0.9v2.1
			c-2.3,0.2-0.4-0.8-4.2-0.9c-1.3-2.3-0.8-2-1.1-4.9c-0.7-0.5-1.1-0.1-1.4-1.1c-0.3-0.8,0.1-1.4,0.5-1.9c0.8-0.9,1.8-1.3,2.8-2.1
			l2.5-2.3c1-0.9,1.3-1.5,2.4-2.3c0.1-1.9-0.3-1.6,0.5-3.3c2.4-5.6,3.9-12.3,7-17.4c4-6.2,8.6-11.7,8.9-19.4c-2.9,0-3.8,1-6.7,0.9
			c-6.8-0.2-10.7-12.5-10.3-18.4c0.3-4.4,1.7-6.9,4.7-9.5c1.1-1,2.6-2.9,3.6-3.5c1,0.2,0.9,0.6,1.7,0.5c1.2-0.1,0.2-0.4,1.5-0.7
			c0.5,1.5-0.5,2,1.4,2.4c5,1.3,3.8,0.7,6.2-0.2c1.6-0.5,1.3,0.6,2.8,0.8c2,0.3,1.5,0.2,3,1c1.7,1,1.8,2.3,4.9,2.9
			c1.9,0.5,1.1,0.2,2.4,1.3c0,2.1-0.8,2-0.6,3.1c0.2,0.7,0.4,2.2,0.8,2.9c0.7-1.2,0.5-2.2,0.9-3.5l1.7-6.8c0.1-1.3,0.1-2.8,0.1-4.2
			c0-6.3-0.2-6.3-0.9-11.8c-0.2-1.4-0.1-2.7-0.3-4c-0.2-1.8-0.9-4.2,0-5.9c0.5-0.9,0.5-0.5,0.5-1.2c-0.1-1-1-6.1-1.7-6.8
			c-0.5-0.5-0.7-0.5-1.5-0.6c-1.4-0.4-7-4.4-3.6-5c1.5-0.3,1.7,1.3,3.2,0.5c-0.5-1.4-2-1.2-1.6-3.2C69,52.5,69.7,53.1,70.5,53.4
			L70.5,53.4z"/>
		<polygon class="st0" points="106,39.7 104.5,44.3 99.6,44.3 103.6,47.1 102.1,51.7 106,48.9 109.9,51.7 108.5,47.1 112.4,44.3 
			107.5,44.3 		"/>
		<polygon class="st0" points="89.9,31.1 88.7,35.2 84.3,35.2 87.9,37.7 86.5,41.8 89.9,39.3 93.5,41.8 92.1,37.7 95.6,35.2 
			91.3,35.2 		"/>
		<polygon class="st0" points="91.7,45.8 90.1,50.6 85,50.6 89.1,53.6 87.5,58.5 91.7,55.5 95.8,58.5 94.2,53.6 98.4,50.6 
			93.3,50.6 		"/>
		<polygon class="st0" points="76,31.8 74.7,36.1 70.1,36.1 73.8,38.8 72.4,43.1 76,40.4 79.7,43.1 78.3,38.8 82,36.1 77.5,36.1 		
			"/>
		<polygon class="st0" points="59.3,47 58.2,50.6 54.4,50.6 57.4,52.9 56.3,56.5 59.3,54.3 62.4,56.5 61.2,52.9 64.3,50.6 
			60.5,50.6 		"/>
		<polygon class="st0" points="61.7,33 60.2,37.5 55.6,37.5 59.4,40.2 58,44.6 61.7,41.9 65.5,44.6 64,40.2 67.8,37.5 63.1,37.5 		
			"/>
		<polygon class="st0" points="86.5,15.9 85.3,19.9 81,19.8 84.4,22.4 83.2,26.3 86.5,23.8 89.9,26.3 88.6,22.4 92,19.8 87.8,19.9 
					"/>
		<polygon class="st0" points="72.2,17.1 70.8,21.2 66.6,21.2 70,23.7 68.7,27.8 72.2,25.3 75.6,27.8 74.2,23.7 77.8,21.2 
			73.4,21.2 		"/>
		<polygon class="st0" points="57.2,22.1 56.2,25.5 52.6,25.5 55.4,27.6 54.4,31 57.2,28.9 60.1,31 59,27.6 61.9,25.5 58.3,25.5 		
			"/>
		<polygon class="st0" points="104.4,18.7 102.9,23.5 97.8,23.5 102,26.4 100.3,31.1 104.4,28.2 108.5,31.1 106.9,26.4 111,23.5 
			105.9,23.5 		"/>
		<polygon class="st0" points="48.6,33.5 47.5,36.8 44,36.8 46.9,38.9 45.7,42.2 48.6,40.2 51.5,42.2 50.4,38.9 53.2,36.8 
			49.7,36.8 		"/>
		<polygon class="st0" points="101.4,32.8 100.5,35.6 97.6,35.6 100,37.3 99.1,40.1 101.4,38.4 103.9,40.1 103,37.3 105.3,35.6 
			102.3,35.6 		"/>
	</g>
	<g id="_2551141584960">
		<path class="st1" d="M258.2,109.6c0-8.9,0-13.7-3.3-17.1c-2.4-2.4-5.9-3.9-9.3-3.9c-4.2,0-7.4,2.2-9.2,4
			c-3.3,3.3-3.3,7.9-3.3,16.9v36.4c0,3.6,0,18.5,5.2,27.4c9.3,16,26.4,17.1,40.1,17.1c13.6,0,27.1-3.2,35.3-16.1
			c4.8-7.4,5.8-17.2,5.8-28.9v-35.9c0-8.9,0-13.7-3.4-17.1c-2.3-2.4-5.9-3.9-9.2-3.9c-4.2,0-7.4,2.2-9.2,4
			c-3.3,3.3-3.3,7.9-3.3,16.9v38.1c0,9-0.2,22.9-17.7,22.9c-18.4,0-18.4-14.5-18.4-23.4L258.2,109.6L258.2,109.6z"/>
		<path class="st1" d="M396,175.4c6.1,10.2,9.3,15.6,17.9,15.6c6.5,0,11.7-4.2,11.7-10c0-5.5-5.5-16.1-9.9-22.3
			c-4.8-6.8-8.4-10-14.7-13.5c4-1,9.2-2.4,14.3-6.1c6.3-4.4,9.9-12.8,9.9-21.3c0-8.9-4-20.3-16-24.8c-7-2.6-16-2.7-22.6-2.7h-25.2
			c-10.7,0-13.9,0-17.3,3.7c-3.7,4-3.7,6.1-3.7,17.4v58c0,8.9,0,13.7,3.3,17.1c2.4,2.4,5.9,3.9,9.3,3.9c4.2,0,7.3-2.1,9.2-4
			c3.3-3.3,3.3-7.9,3.3-16.9v-21.3h3.3c8.1,0,11.7,1.1,19.8,14.8L396,175.4L396,175.4z M365.6,108.7H380c9.2,0,19.7,0,19.7,11
			c0,11.1-11.1,11.4-20.3,11.4h-13.7L365.6,108.7L365.6,108.7z"/>
		<g>
			<path class="st1" d="M189.2,169.6l1.6,4.8c3.4,10.2,5.6,16.1,14.3,16.1c7.6,0,12.4-6.5,12.4-11.4c0-3.6-1.1-6.1-3.7-13.1
				L193,112.5c-4.8-12.4-6.6-17.3-11-20.3c-3.3-2.2-7.3-3.4-11.1-3.4c-4.7,0-8.4,1.6-11.3,3.6c-4.2,2.9-6.1,7.9-10.8,20.2l-20.6,54
				c-2.7,7.1-3.4,9.3-3.4,12.9c0,5.2,5.2,11,11.8,11c8.8,0,10.7-5.9,14-16l1.6-5H189.2L189.2,169.6z M158.5,150.7l12.1-36.3
				l12.2,36.3H158.5L158.5,150.7z"/>
			<path class="st2" d="M160.7,230.7c0-3.6-1.6-7.5-4.5-9.7c-3.1-2.2-8.8-3.9-11.7-4.5c-5.2-1.2-9.1-2.2-9.1-5.1
				c0-2.3,2.9-3.7,6.3-3.7c1,0,2.3,0.1,3.6,0.6c1.8,0.8,2.3,1.5,4.5,4.7c0.5,0.6,1.9,2.3,4.4,2.3c2.6,0,4.3-1.9,4.3-4.9
				c0-2-2.4-10.5-16.2-10.5c-10,0-17.4,4.2-17.4,12.3c0,9.7,9.7,12,14.7,13.2c5.7,1.4,9.8,2.4,9.8,6.3c0,3.3-3.3,4.9-7.2,4.9
				c-4.9,0-6.5-2.4-7.8-4.9c-1-1.8-1.8-4.6-5.4-4.6c-3.4,0-4.7,3.1-4.7,4.8c0,3.8,3.6,12.7,18.1,12.7
				C154.9,245,160.7,238.4,160.7,230.7L160.7,230.7z M193.5,222.9c0-2.6,0-14.1,9.8-14.1c4.3,0,7,2.3,8.6,5.7
				c0.8,1.9,1.9,4.2,5.1,4.2c3,0,4.9-2.6,4.9-4.9c0-4.6-4.6-13.6-18.5-13.6c-12.7,0-20.9,8.9-20.9,22.6c0,4.8,0.9,11.1,5.7,16.3
				c3.6,4,8.2,6,15.5,6c6.6,0,10-1.6,12.9-4.2c3.1-2.6,5.2-6.7,5.2-10.4c0-2.9-2.4-4.9-4.9-4.9c-3.3,0-4.3,2.7-4.9,4
				c-1.1,2.9-3,6.9-8.9,6.9c-2.8,0-5.5-1.2-7-3.2C194.6,231.4,193.5,228.6,193.5,222.9L193.5,222.9z M256.3,217v-7.7
				c0-4,0.1-6-1.4-7.5c-1.1-1.1-2.6-1.7-4.2-1.7c-1.9,0-3.3,1-4.1,1.7c-1.4,1.4-1.4,3.4-1.4,7.4v26.5c0,4,0,6.1,1.4,7.5
				c1.1,1.1,2.6,1.7,4.2,1.7c1.9,0,3.3-1,4.1-1.7c1.4-1.4,1.4-3.4,1.4-7.4v-9.8h15.9v9.7c0,4,0,6.1,1.4,7.5c1.1,1.1,2.6,1.7,4.2,1.7
				c1.8,0,3.3-0.9,4.1-1.7c1.4-1.4,1.4-3.4,1.4-7.4v-26.4c0-4,0-6.1-1.5-7.6c-1.1-1.1-2.6-1.7-4.1-1.7c-1.9,0-3.3,0.9-4.1,1.7
				c-1.4,1.4-1.4,3.5-1.4,7.5v7.6L256.3,217L256.3,217z M306.5,222.4c0,13.3,7,22.6,21.8,22.6c15.2,0,21.7-10,21.7-22.5
				c0-12.6-6.6-22.3-22-22.3C313.1,200.1,306.5,210.4,306.5,222.4L306.5,222.4z M317.7,222.4c0-8.6,3.7-13.5,10.6-13.5
				c10.6,0,10.6,11,10.6,13.5c0,2.7-0.3,6.3-1.8,8.9c-1.7,3-4.9,4.9-8.8,4.9c-4.1,0-6.4-2.1-7.6-3.5
				C319.2,230.9,317.7,228.2,317.7,222.4L317.7,222.4z M383.9,235.3v-25.9c0-4,0-6-1.4-7.5c-1.1-1.1-2.6-1.7-4.2-1.7
				c-1.9,0-3.3,1-4.1,1.7c-1.4,1.4-1.4,3.4-1.4,7.4v25.6c0,4.7,0,6.1,1.6,7.7c1.7,1.6,2.6,1.6,7.7,1.6h16.4c3.3,0,4.9,0,6.1-1.2
				c0.8-0.8,1.4-2.1,1.4-3.3c0-1.5-0.8-2.6-1.4-3.3c-1.2-1.2-2.9-1.2-6.1-1.2L383.9,235.3L383.9,235.3z M453.5,235.7l0.7,2.1
				c1.5,4.5,2.4,7,6.3,7c3.3,0,5.4-2.9,5.4-5.1c0-1.5-0.5-2.7-1.6-5.8l-9.1-23.6c-2.1-5.4-2.9-7.6-4.9-8.9c-1.4-1-3.3-1.5-4.9-1.5
				c-2.1,0-3.7,0.7-5,1.5c-1.8,1.3-2.6,3.4-4.8,8.9l-9.1,23.9c-1.2,3.2-1.5,4.2-1.5,5.7c0,2.3,2.3,4.9,5.2,4.9c3.9,0,4.7-2.6,6.1-7
				l0.7-2.2L453.5,235.7L453.5,235.7z M440,227.4l5.3-16l5.4,16H440L440,227.4z M513.3,238.3c2.6,4.5,4.2,6.9,7.9,6.9
				c2.9,0,5.1-1.9,5.1-4.4c0-2.4-2.4-7-4.3-9.8c-2.1-3-3.7-4.4-6.5-6c1.7-0.5,4.1-1.1,6.3-2.6c2.8-1.9,4.3-5.6,4.3-9.4
				c0-4-1.7-8.9-7-10.9c-3.1-1.2-7-1.2-9.9-1.2H498c-4.7,0-6.1,0-7.6,1.6c-1.6,1.7-1.6,2.6-1.6,7.7v25.7c0,4,0,6.1,1.4,7.5
				c1.1,1.1,2.6,1.7,4.2,1.7c1.8,0,3.3-0.9,4.1-1.7c1.4-1.4,1.4-3.4,1.4-7.4v-9.4h1.4c3.6,0,5.1,0.5,8.8,6.5L513.3,238.3
				L513.3,238.3z M499.9,208.9h6.3c4.1,0,8.7,0,8.7,4.9c0,4.9-4.9,5.1-8.9,5.1h-6.1L499.9,208.9L499.9,208.9z"/>
		</g>
		<g>
			<path class="st3" d="M522,162.9c-0.2-0.9-0.1-0.4-2-1.4l-15.4-8.9c0.2-1.5,2.7-4.3,3-11.7c0.9-0.3,19.8-0.4,22.9-0.1
				c2.8,0.2,3.1,2.3,2.8,5c-0.5,4.2-3,15-5.2,17.7C525.9,165.6,523.6,163,522,162.9L522,162.9z M504.5,128.1
				c3-1.4,13.6-7.9,17.7-10.1c1.3-0.7,2.3-1.8,4.2-1.4c2.1,0.5,3.6,5.3,4.2,7.3c0.9,3.1,1.6,5.3,2.3,8.9c0.5,3.4,1.4,7.3-2.7,7.4
				c-7.2,0.2-15.3,0.2-22.5,0c-0.2-2.3-0.5-4.1-1.1-6.3C506.1,131.8,504.7,129.3,504.5,128.1L504.5,128.1z M504.2,127.6
				c-0.6-0.5-2-2.8-3.8-4.6c-3.1-3-2.7-2.1-4.8-3.8c0.2-1,3.7-6.7,4.5-8l7-12c1.1-1.4,2.6-1.6,4.5-0.4l7.6,6.5l5.1,6.1
				c3,4.2-1.1,5.2-3.9,7L504.2,127.6L504.2,127.6z M482.3,90.8l0.4,0.9c0.3,7.7,0,16.1,0.1,23.9l-1.2,0.1c-0.2,0.2-0.3,0.4-0.5,0.5
				c20.6-1.4,33.1,20.9,22,37.5l-1.2,1.3c-0.1,0.5,0.2,0-0.3,0.6l0.1,0.4c1.2-0.5,1.5-2.2,2.5-3.1c2.1,0.7,16.2,9.8,17.8,9.9
				c0.3,0.5-0.2,0.1,0.5,0.6c0.2,0.2,0.6,0.4,0.9,0.5c0.6,0.4,0.9,0.5,1.4,1c1.1,0.1,0.7,0.3,0.5-0.2c3.3-0.7,3.3-1.4,4.5-4.3
				c1.6-3.8,4.5-13.9,3.9-17.6c-0.3-1.8-1.2-1.6-1.8-2.6c2.4-2.1,2.1-2.8,1.6-6.3c-0.7-5.1-1.9-9-3.7-13.7c-1.1-2.6-1.4-3.9-4.5-4.3
				c0.8-2.9,1.3-2.8-1.9-6.7c-2.9-3.6-8.3-9.1-12.3-11.4c-1.6-0.9-2.3-0.3-3.9,0.1c-0.3-3.3-1.9-3.4-4.2-4.5
				c-3.7-1.6-13.8-4.3-17.4-4c-1.4,0.2-1.9,1.1-2.8,1.8L482.3,90.8L482.3,90.8z"/>
			<path class="st4" d="M504.5,128.1c0.1,1.3,1.5,3.7,2.1,5.6c0.6,2.3,0.8,4,1.1,6.3c7.2,0.2,15.3,0.2,22.5,0c4.2-0.1,3.3-4,2.7-7.4
				c-0.5-3.5-1.4-5.8-2.3-8.9c-0.6-2-2.1-6.8-4.2-7.3c-1.9-0.5-2.9,0.6-4.2,1.4C518,120.2,507.5,126.7,504.5,128.1L504.5,128.1z"/>
			<path class="st5" d="M522,162.9c1.6,0.1,3.9,2.7,5.9,0.4c2.3-2.7,4.9-13.6,5.2-17.7c0.3-2.6-0.1-4.8-2.8-5
				c-3.1-0.2-22-0.1-22.9,0.1c-0.3,7.4-2.8,10.2-3,11.7l15.4,8.9C521.9,162.6,521.8,162,522,162.9L522,162.9z"/>
			<path class="st6" d="M483.3,165.1c-0.3,3.3,0,7.8,0,11.2c0,14.5-1.4,15.4,7.7,13.9c3.2-0.5,6-1.3,8.9-2.3
				c9.8-3.3,7.9-4.5,3.5-11.8c-0.7-1.2-7.6-13.5-8.3-14.2c-1.9,0.5-3.3,1.5-5.3,2.1C487.4,164.6,485.5,164.6,483.3,165.1
				L483.3,165.1z"/>
			<path class="st7" d="M481.6,115.8l1.2-0.1c-0.1-7.9,0.2-16.3-0.1-23.9c-1-0.7-0.5-1.4-2.3-1.7c-3.3-0.6-13.5,2.2-16.9,3.6
				c-6.1,2.6-5.3,3.2-1.7,9.4l9.1,15.6c1.6-0.5,3-1.4,4.8-2C477.5,116.1,479.5,115.9,481.6,115.8L481.6,115.8z"/>
			<path class="st8" d="M501.7,156.1c-0.2,1.2-3.3,3.6-4.3,4.3c-0.6,0.5-1,0.5-1.6,1.2c0.2,1.1,5.2,9.4,6.2,11.1l4.8,8.2
				c2.3,3.9,5.1,1.2,7.9-1.1c3.1-2.4,5.9-5.4,8.5-8.7c2-2.6,2.8-3.5,1.8-6.1c-0.5-0.5-0.7-0.6-1.4-1c-0.3-0.2-0.7-0.4-0.9-0.5
				c-0.7-0.5-0.3-0.1-0.5-0.6c-1.6-0.1-15.7-9.2-17.8-9.9C503.2,153.9,502.8,155.4,501.7,156.1L501.7,156.1z"/>
			<path class="st9" d="M470.6,162c-2.3,4.6-7.4,12.7-10.3,17.9c-0.7,1.3-1.8,2.4-1.2,4.2c0.6,1.7,5.1,3.3,7.1,4
				c2.8,0.9,5.9,1.8,8.9,2.3c3.5,0.5,7.2,1.4,7.2-3.1c0-4.4,0.2-18.5,0-22.1c-0.9-0.3-2.4-0.2-3.5-0.5
				C474.5,163.9,471.5,162.1,470.6,162L470.6,162z"/>
			<path class="st10" d="M433.2,139.3c2.3,1.1,2.6,0.7,5.5,0.7h19.5l0.5-4.2c0.3-0.6,0.2-0.5,0.4-0.6c-0.5-2,2.1-5.6,2.2-6.9
				c-0.6-0.5-19.5-11.4-20.2-11.6c-2.9-0.7-3.6,1.5-4.4,3.4c-1.7,4-3,8-3.6,12.4c-0.2,1.3-0.4,2.3-0.5,3.5
				C432.3,137.9,432.6,137.9,433.2,139.3L433.2,139.3z"/>
			<path class="st11" d="M445.4,162.3c-3,1.7-6.8,2.8-4.1,7c2.9,4.4,8.2,9.8,12.7,12.7c3.9,2.6,5.3-1.7,6.8-4.2
				c1.4-2.3,9-15.1,9.2-16.2c-2.6-2.1-4.5-3.1-6.8-6.1c-0.5-0.7-1.2-1.8-1.7-2.3L445.4,162.3L445.4,162.3z"/>
			<path class="st12" d="M461.2,152.6c-0.2-1.2-1.5-3.8-2.1-5.5c-0.5-1.9-0.6-5.1-1.1-6.5c-7.3,0.3-14.8-0.1-22.1,0
				c-4.4,0.1-3.5,3.6-3,7c0.5,3.2,3.2,15.4,6.1,16.4c2.1,0.7,5.1-1.7,7.9-3.3c2.6-1.5,4.4-2.6,7-4.1
				C456.2,155.4,459.1,153.5,461.2,152.6L461.2,152.6z"/>
			<path class="st13" d="M461.6,127.6c0.8-0.7,2.2-3.6,6-6.6c0.9-0.7,1.8-1.3,2.5-1.8l-9.1-16.3c-3.6-5.8-3.3-7.7-12,0l-3.2,3.1
				c-1.4,1.6-3.2,3.4-4.4,5.3c-2.7,4.2,1.4,5.3,4.2,7c2.8,1.5,5.2,3.1,8.1,4.7C455.9,124.3,459.9,126.9,461.6,127.6L461.6,127.6z"/>
			<path class="st14" d="M520.5,118.2c2.8-1.7,6.9-2.8,3.9-7l-5.1-6.1l-7.6-6.5c-1.8-1.3-3.4-1-4.5,0.4l-7,12
				c-0.8,1.4-4.2,7.1-4.5,8c2.1,1.7,1.8,0.8,4.8,3.8c1.8,1.7,3.2,4.2,3.8,4.6L520.5,118.2L520.5,118.2z"/>
			<path class="st15" d="M480.4,88.9c7.9-0.3,15.1,1,21.9,3.8c30.8,12.6,42.7,51.1,21.2,79.2c-4.4,5.8-9.3,9.7-15.5,13.4
				c-0.8,0.5-1.1,0.5-2,1c-12.5,6.5-29.4,7.2-42.3,1.7c-18.7-8.1-30.4-23.8-32.2-45c-0.6-7.4,1.3-15.8,3.7-22
				c3.4-8.8,9.7-16.3,16.9-21.8C459.6,93.5,470.2,89.4,480.4,88.9L480.4,88.9z M478.8,88.6c-8.4,0.9-13.7,2.5-20.1,5.9
				c-18.2,9.4-29.2,29.4-27.6,50.2c2.1,26.8,26,50,56,47.5c27-2.2,50-25.9,47.6-56c-0.6-7.5-2.7-14.3-5.9-20.1
				c-3.6-6.6-6.9-10.2-11.4-14.5C509.4,93.9,494.1,87,478.8,88.6L478.8,88.6z"/>
			<path class="st16" d="M483.3,165.1c2.3-0.5,4.2-0.5,6.4-1c2.1-0.5,3.4-1.5,5.3-2.1c0.6,0.6,7.6,13,8.3,14.2
				c4.3,7.3,6.1,8.6-3.5,11.8c-2.9,1-5.7,1.8-8.9,2.3c-9.1,1.4-7.7,0.5-7.7-13.9C483.2,173,482.9,168.4,483.3,165.1L483.3,165.1z
				 M470.6,162c0.8,0,3.8,1.9,8.4,2.7c1.1,0.2,2.7,0.1,3.5,0.5c0.3,3.5,0.1,17.7,0,22.1c0,4.5-3.7,3.6-7.2,3.1
				c-3.2-0.5-6.1-1.3-8.9-2.3c-2.1-0.7-6.5-2.3-7.1-4c-0.6-1.7,0.5-2.9,1.2-4.2C463.2,174.9,468.4,166.6,470.6,162L470.6,162z
				 M461.6,153c0.5,0.6,1.2,1.6,1.7,2.3c2.3,3,4.2,4.1,6.8,6.1c-0.2,1.2-7.9,13.9-9.2,16.2c-1.4,2.5-2.9,6.9-6.8,4.2
				c-4.5-3-9.8-8.3-12.7-12.7c-2.7-4.2,1.1-5.2,4.1-7L461.6,153L461.6,153z M461.2,152.6c-2.2,0.9-5.1,2.8-7.2,4.1
				c-2.6,1.4-4.3,2.6-7,4.1c-2.8,1.6-5.9,4.1-7.9,3.3c-2.9-1.1-5.7-13.2-6.1-16.4c-0.5-3.3-1.4-7,3-7c7.3-0.1,14.8,0.3,22.1,0
				c0.5,1.3,0.5,4.5,1.1,6.5C459.7,148.8,461,151.5,461.2,152.6L461.2,152.6z M433.2,139.3h-0.4c0.5,0.6,0.3,0.4,1,0.9l-1.2,1.2
				c-1.8,2.2,0.4,10.2,1,12.6c0.6,2.3,1.4,4.3,2.3,6.5c0.9,2.3,1.4,4.1,4.5,4.2c-1.1,3.7,0.5,4.7,2.1,6.9c2.3,3,6.4,7,9.2,9.3
				c0.9,0.7,4.4,3.8,6.1,1.9c0.6,0.5,0.1,0,0.5,0.6l0.4,1.2c1.3,3.2,14.5,6.1,17.6,6.5c6.1,0.7,4.5-0.3,6.5-1.6
				c0.8,0.9,1,1.6,2.5,1.9c3.7,0.6,13.9-2.4,17.7-4.1c4.4-1.9,3.3-2.2,4.2-4.3c1.5,0.5,2.3,0.9,3.9,0c4.1-2.3,11.6-9.9,14-14.1
				c1-1.7,0.5-2.2,0-3.9c0.2,0.4,0.6,0.3-0.5,0.2c1,2.6,0.2,3.5-1.8,6.1c-2.5,3.3-5.4,6.2-8.5,8.7c-2.8,2.3-5.6,5-7.9,1.1l-4.8-8.2
				c-1-1.7-6.1-10-6.2-11.1c0.6-0.6,1-0.7,1.6-1.2c1.1-0.7,4.2-3.2,4.3-4.3l-0.1-0.4c-0.8,0.8-2.6,3.2-3.7,3.4l-0.6,0.7
				c-0.4,0.4-0.4,0.3-0.6,0.5c-10.8,7-24.4,4.8-31.7-3.9l-2-2.6c-6.2-9.6-3.4-16-3.8-18.8c-0.2,0.2-0.2,0-0.4,0.6l-0.5,4.2h-19.5
				C435.8,140,435.5,140.3,433.2,139.3L433.2,139.3z"/>
			<path class="st15" d="M477.4,146.3c1.4,0.4,3.9,3.3,8.6,1.4c1.2-0.5,1.4-0.9,2.3-1.4c0.8,0.4,6.2,6.1,7.7,7.5
				c0.8,0.8,2.1,1.7,1.8,3.5c-0.6,3.3-12.8,8.8-23.3,4.6c-2.1-0.8-5.8-2.7-6.2-4.2c-0.8-2.3,1.7-4.1,4-6.3
				C473.9,149.8,475.5,148.1,477.4,146.3L477.4,146.3z M481.2,133.1c4.4-0.9,8.1,2.1,8.9,5.5c1,4.4-2,8.1-5.7,8.9
				C474.7,149.7,472.1,135.1,481.2,133.1z M476.9,145.8c-0.5,0.9-6.1,6.2-7.6,7.7c-0.7,0.7-1.7,2-3.5,1.7c-3.2-0.6-6.1-9.8-6.1-14.7
				v-0.3c0-4.8,2.8-13.8,6-14.7c1.7-0.5,2.6,0.6,3.3,1.4c1.9,1.9,6.9,6.6,7.9,7.9c-0.5,1.3-1.9,2.3-2,5.3
				C475,143.1,476,144,476.9,145.8L476.9,145.8z M488.8,134.9l7.7-7.8c0.8-0.7,1.6-2,3.5-1.6c3.3,0.7,8.7,12.6,4.4,23.4
				c-1.4,3.7-4,8.8-7.7,4.8l-5.2-5.2c-0.7-0.7-2-1.9-2.6-2.8c0.6-1.6,3.2-4.1,1.4-8.6C489.8,136.2,489,135.6,488.8,134.9
				L488.8,134.9z M472.2,129.2c-4-4-7.8-6.3,2-10.3c2.6-1.1,5.5-1.7,8.8-1.7s6.1,0.7,8.8,1.7c1.9,0.7,5.7,2.6,6,4.4
				c0.4,1.8-1,2.8-1.7,3.5c-1.4,1.4-7,7.1-7.8,7.5c-2-1-2.3-2-5.6-2c-3.2,0.1-3.9,1.6-5.3,1.9L472.2,129.2L472.2,129.2z M497.6,159
				c0.4-1.1,0.8-1.5,0.5-3.3c2.3,0.1,2-0.1,3.5-0.7c0.3-0.8,1.5-2.5,2.1-3.6c3.5-6.5,3.7-15.3,0.2-21.8c-2.2-4.1-2.5-4.6-5.7-4.6
				c-0.4-3.1-0.2-3.7-5.7-6.2c-2.9-1.3-6.2-2.1-9.7-2.1c-3.6,0-6.9,0.8-9.8,2.1c-3.9,1.7-5.9,2.8-5.5,6.2c-2.3-0.4-3.2,0.3-4.2,1.8
				c-2.6,3.8-4.2,8.8-4.2,13.6c0,3.4,0.9,7,2.2,9.8c0.6,1.3,1.4,2.6,2.1,3.7c1,1.5,1.7,2.1,4.1,1.7c-0.1,2.1,0.1,3,1.5,4
				c6.2,4.3,13.9,5.7,21.3,3.2c1.4-0.5,2.5-1,3.8-1.7C495.6,160.4,496.6,159.5,497.6,159L497.6,159z"/>
			<path class="st17" d="M461.6,127.6c-1.7-0.8-5.8-3.3-8-4.6c-2.9-1.5-5.3-3.1-8.1-4.7c-2.8-1.5-6.9-2.8-4.2-7
				c1.3-1.9,3-3.7,4.4-5.3l3.2-3.1c8.8-7.8,8.5-5.9,12,0l9.2,16.3c-0.7,0.6-1.7,1.2-2.5,1.8C463.8,124,462.4,126.9,461.6,127.6
				L461.6,127.6z M432.9,139.4h0.4c-0.6-1.4-0.9-1.4-0.7-3.3c0.1-1.3,0.3-2.3,0.5-3.5c0.7-4.3,2-8.4,3.6-12.4
				c0.8-1.9,1.5-4.2,4.4-3.4c0.7,0.2,19.6,11.1,20.2,11.6c-0.1,1.3-2.6,4.9-2.2,6.9l0.7-1.8c0.5-1.4,1.6-4,2.3-5.3
				c3.5-6.1,11.2-11.5,18.9-11.7c0.3-0.2,0.4-0.3,0.5-0.5c-2.1,0.1-4.1,0.5-5.9,1c-1.8,0.5-3.2,1.4-4.8,2l-9.1-15.6
				c-3.6-6.2-4.3-6.8,1.7-9.4c3.5-1.5,13.6-4.2,16.9-3.6c1.7,0.3,1.3,1,2.3,1.7l-0.4-0.9c-1-2.9-11-0.2-13.5,0.5
				c-2.2,0.6-4.2,1.4-6.1,2.2c-2.6,1.1-3.6,1.2-4.2,4.4c-2.8-0.8-2.9-1.1-6.5,1.8c-3.4,2.7-9.2,8.3-11.5,12.1c-1,1.8-0.4,2.5,0,4
				c-3,0.4-3.3,1.4-4.2,3.8C434.6,123.4,430,137.2,432.9,139.4L432.9,139.4z"/>
			<path class="st15" d="M489,141.9c-0.7,3-3.7,5.6-7.7,4.7c-3-0.6-5.7-3.9-4.7-7.9C478.7,130.9,491.1,133.7,489,141.9L489,141.9z
				 M481.3,133.7c-8.9,2.2-5.7,15.5,3.3,13.4C493.1,145,490.2,131.5,481.3,133.7z"/>
			<path class="st18" d="M497.6,159L497.6,159c1.2-0.2,3-2.5,3.8-3.3c0.5-0.6,0.2-0.2,0.3-0.6l-0.1-0.1c-1.4,0.6-1.2,0.9-3.5,0.7
				C498.5,157.5,498,158,497.6,159L497.6,159z"/>
		</g>
	</g>
</g>
</svg>
